<?xml version="1.0" standalone="no"?>
<!DOCTYPE svg PUBLIC "-//W3C//DTD SVG 20010904//EN"
 "http://www.w3.org/TR/2001/REC-SVG-20010904/DTD/svg10.dtd">
<svg version="1.0" xmlns="http://www.w3.org/2000/svg"
 width="128.000000pt" height="128.000000pt" viewBox="0 0 128.000000 128.000000"
 preserveAspectRatio="xMidYMid meet">
<metadata>
Created by potrace 1.10, written by Peter Selinger 2001-2011
</metadata>
<g transform="translate(0.000000,128.000000) scale(0.100000,-0.100000)"
fill="#000000" stroke="none">
<path d="M306 1252 c-2 -4 -21 -59 -41 -122 l-37 -114 17 -456 c15 -399 19
-457 33 -467 10 -7 28 -22 40 -33 32 -27 91 -26 126 1 25 19 38 21 198 19 141
-1 173 -3 183 -16 6 -8 29 -18 52 -21 35 -5 49 0 92 27 40 26 51 39 51 59 0
14 7 222 15 461 l16 435 -38 115 -38 115 -332 3 c-182 1 -334 -1 -337 -6z
m631 -28 c14 -8 24 -28 28 -51 4 -21 13 -55 21 -75 7 -21 10 -38 6 -39 -4 -1
-163 -2 -354 -3 l-348 -1 0 22 c0 12 4 24 9 27 4 3 11 27 14 53 8 69 26 80
139 82 50 1 94 4 97 7 4 3 87 3 186 -1 127 -5 186 -11 202 -21z m85 -193 c-7
-4 -12 -14 -10 -22 2 -8 -5 -14 -14 -14 -10 0 -17 -5 -15 -10 1 -6 10 -10 19
-9 13 0 16 -6 12 -25 -2 -14 -6 -89 -8 -166 -13 -473 -20 -631 -28 -642 -5 -6
-17 -9 -25 -6 -11 5 -14 3 -9 -6 5 -7 17 -10 28 -8 12 4 18 1 15 -6 -3 -11
-154 -15 -600 -18 -81 0 -121 11 -78 21 14 3 27 12 29 20 4 13 3 13 -10 2 -12
-10 -18 -10 -23 -1 -5 7 -10 8 -14 1 -3 -6 -6 74 -6 176 0 271 -15 634 -28
657 -9 18 -8 19 6 6 9 -7 24 -11 32 -7 18 7 20 28 3 25 -27 -3 -39 1 -32 12 3
6 0 15 -7 20 -8 5 152 9 381 9 217 0 389 -4 382 -9z m-642 -957 c0 -11 -6 -14
-22 -9 -39 12 -44 25 -10 25 22 0 32 -5 32 -16z m510 2 c0 -12 -6 -13 -30 -5
-16 6 -30 13 -30 15 0 2 14 4 30 4 20 0 30 -5 30 -14z"/>
<path d="M505 926 c-55 -25 -155 -124 -155 -153 0 -15 -2 -16 -10 -3 -6 9 -10
10 -10 3 0 -25 20 -22 34 5 23 45 124 130 138 117 3 -3 24 2 48 10 50 18 127
20 167 4 15 -6 40 -12 55 -14 35 -5 77 -34 123 -88 31 -35 34 -37 21 -12 -21
44 -94 111 -146 134 -67 30 -197 29 -265 -3z"/>
<path d="M583 862 c-6 -4 20 -7 57 -7 37 0 63 3 57 7 -7 4 -32 8 -57 8 -25 0
-50 -4 -57 -8z"/>
<path d="M571 833 c-41 -21 -81 -91 -81 -140 0 -115 116 -186 219 -134 81 42
102 121 56 211 -29 57 -47 69 -113 76 -34 4 -57 0 -81 -13z m147 -33 c60 -37
77 -122 37 -183 -23 -36 -120 -56 -164 -34 -17 9 -29 11 -26 6 16 -25 -23 6
-42 34 -27 38 -29 74 -9 122 30 70 133 98 204 55z"/>
<path d="M937 768 c-4 -11 -2 -18 5 -18 7 0 9 -27 6 -82 -7 -130 -60 -212
-170 -268 -52 -26 -72 -30 -137 -30 -128 0 -224 59 -281 172 -25 51 -30 73
-31 137 0 62 -2 71 -11 51 -16 -40 -4 -159 21 -208 31 -60 94 -120 160 -151
47 -22 70 -26 141 -26 71 0 94 4 142 27 146 68 219 225 174 373 -9 31 -13 36
-19 23z"/>
<path d="M794 351 c-51 -24 -74 -55 -74 -102 0 -85 102 -144 180 -104 76 40
91 131 31 187 -40 38 -85 44 -137 19z m97 -21 c10 -6 26 -24 35 -41 47 -92
-72 -174 -147 -100 -20 20 -29 39 -29 61 0 65 82 111 141 80z"/>
<path d="M802 288 c-28 -28 -1 -78 43 -78 34 0 60 41 45 69 -14 28 -17 26 -12
-7 4 -33 -18 -56 -47 -47 -25 8 -34 31 -21 56 12 22 9 24 -8 7z"/>
<path d="M380 320 c-26 -26 -35 -66 -22 -95 14 -31 66 -58 95 -49 68 20 92
103 41 143 -34 27 -88 27 -114 1z m94 -16 c22 -21 31 -64 19 -83 -17 -26 -59
-37 -88 -21 -33 18 -34 62 0 95 28 29 47 31 69 9z"/>
</g>
</svg>
